<?xml version="1.0" standalone="no"?><!DOCTYPE svg PUBLIC "-//W3C//DTD SVG 1.1//EN" "http://www.w3.org/Graphics/SVG/1.1/DTD/svg11.dtd"><svg t="1589527118663" class="icon" viewBox="0 0 1024 1024" version="1.1" xmlns="http://www.w3.org/2000/svg" p-id="8572" xmlns:xlink="http://www.w3.org/1999/xlink" width="200" height="200"><defs><style type="text/css"></style></defs><path d="M170.666667 877.714286 170.666667 97.521869C170.666667 84.05893 181.570178 73.142857 194.97459 73.142857L731.501602 73.142857C744.921356 73.142857 755.809524 84.112804 755.809524 97.888742L755.809524 731.063637C755.809524 744.813544 744.950267 755.809524 731.644221 755.809524L243.809524 755.809524C191.565379 755.809524 155.900639 779.586019 136.669204 818.048887 125.529483 840.328329 121.904762 862.076655 121.904762 877.714286L170.666667 877.714286 170.666667 877.714286ZM170.666667 877.714286C170.666667 868.970964 173.137184 854.147862 180.283177 839.855874 191.527933 817.366362 210.720335 804.571429 243.809524 804.571429L731.644221 804.571429C772.018235 804.571429 804.571429 771.608376 804.571429 731.063637L804.571429 97.888742C804.571429 57.263687 771.933828 24.380952 731.501602 24.380952L194.97459 24.380952C154.627145 24.380952 121.904762 57.141034 121.904762 97.521869L121.904762 877.714286C121.904762 893.351916 125.529483 915.100243 136.669204 937.379684 155.900639 975.842553 191.565379 999.619048 243.809524 999.619048L829.025412 999.619048C869.297874 999.619048 902.095238 966.614718 902.095238 926.478131L902.095238 146.285714C902.095238 132.820486 891.179515 121.904762 877.714286 121.904762 864.249056 121.904762 853.333333 132.820486 853.333333 146.285714L853.333333 926.478131C853.333333 939.752687 842.298514 950.857143 829.025412 950.857143L243.809524 950.857143C210.720335 950.857143 191.527933 938.062209 180.283177 915.572697 173.137184 901.280709 170.666667 886.457607 170.666667 877.714286Z" p-id="8573"></path><path d="M268.190476 902.095238 755.809524 902.095238C769.274753 902.095238 780.190476 891.179515 780.190476 877.714286 780.190476 864.249056 769.274753 853.333333 755.809524 853.333333L268.190476 853.333333C254.725248 853.333333 243.809524 864.249056 243.809524 877.714286 243.809524 891.179515 254.725248 902.095238 268.190476 902.095238L268.190476 902.095238Z" p-id="8574"></path></svg>