<?xml version="1.0" standalone="no"?><!DOCTYPE svg PUBLIC "-//W3C//DTD SVG 1.1//EN" "http://www.w3.org/Graphics/SVG/1.1/DTD/svg11.dtd"><svg t="1589527236103" class="icon" viewBox="0 0 1024 1024" version="1.1" xmlns="http://www.w3.org/2000/svg" p-id="10674" xmlns:xlink="http://www.w3.org/1999/xlink" width="200" height="200"><defs><style type="text/css"></style></defs><path d="M839.813913 783.362707l122.238625 73.343175a39.359557 39.359557 0 0 0 59.327332-28.799676l0.639993-4.671947 0.191998-1.279986c1.279986-9.407894 1.855979-15.10383 1.855979-22.271749a224.317476 224.317476 0 0 0-224.317476-224.317477h-0.575994c-28.863675 0.127999-53.567397-8.831901-70.399208-25.72771l-251.51717-251.517171c-19.199784-19.135785-29.695666-43.135515-28.671678-65.663261 2.367973-55.039381-19.327783-107.774788-70.015212-161.79018C336.587574 25.867229 279.884212-0.628473 221.644867 0.01152c-50.559431 0.639993-98.302894 18.62379-137.534452 50.367433a39.359557 39.359557 0 0 0 4.479949 64.383276l114.622711 68.799226a93.694946 93.694946 0 0 1-39.423557 57.087358L60.878676 178.889507a39.359557 39.359557 0 0 0-39.359557-0.639992 39.359557 39.359557 0 0 0-21.055763 32.639632 224.381476 224.381476 0 0 0 223.99748 237.757326c13.631847 0 27.135695-1.471983 40.959539-4.351951l281.340835 281.340835c19.263783 19.327783 29.823664 43.391512 28.863675 66.047257-2.367973 54.655385 19.071785 107.006796 69.055223 160.638192 41.663531 44.799496 97.726901 71.807192 155.518251 71.679194a222.589496 222.589496 0 0 0 129.278545-41.79153 39.359557 39.359557 0 0 0-2.559971-65.855259l-126.526576-75.903146c5.31194-23.231739 19.391782-43.775508 39.423556-57.087358z m-20.159773 160.510194c-6.463927 0.89599-12.991854 1.343985-19.58378 1.343985-34.68761 0.063999-70.335209-17.087808-97.7909-46.591476-36.159593-38.847563-49.343445-71.039201-47.99946-103.614834 1.983978-45.951483-17.663801-90.878978-51.839417-125.054593L305.227927 372.743327a39.359557 39.359557 0 0 0-39.167559-9.855889c-15.487826 4.671947-28.799676 7.039921-41.599532 7.03992-56.447365 0-105.086818-31.99964-129.278546-78.591116l47.359467 28.415681c11.51987 6.911922 25.79171 7.423916 37.823575 1.407984l8.703902-4.287952a172.41406 172.41406 0 0 0 95.294928-154.238265 39.359557 39.359557 0 0 0-19.135785-33.72762l-76.031145-45.631487c10.879878-2.815968 22.015752-4.351951 33.407625-4.479949 35.071605-0.447995 71.039201 16.447815 98.558891 45.759485 36.735587 39.231559 50.111436 71.679194 48.639453 104.446825-1.919978 45.951483 17.663801 90.878978 51.775417 124.862595l251.517171 251.51717c32.575634 32.639633 77.567127 48.959449 126.270579 48.767452h0.383996c62.719294 0 116.222692 39.679554 136.638463 95.358927l-75.263154-45.247491a39.359557 39.359557 0 0 0-37.887574-1.471983l-8.703902 4.351951a172.41406 172.41406 0 0 0-95.294928 154.238264c0 13.823844 7.295918 26.6237 19.199784 33.727621l81.215087 48.767451zM40.334907 213.129122l-0.255997 0.447995 17.279806 34.751609 0.83199-0.447995 0.319997-0.127998 2.751969-1.599982-20.287772-33.023629h-0.639993z" fill="#dbdbdb" p-id="10675"></path></svg>