<?xml version="1.0" standalone="no"?><!DOCTYPE svg PUBLIC "-//W3C//DTD SVG 1.1//EN" "http://www.w3.org/Graphics/SVG/1.1/DTD/svg11.dtd"><svg t="1594303945733" class="icon" viewBox="0 0 1024 1024" version="1.1" xmlns="http://www.w3.org/2000/svg" p-id="4734" xmlns:xlink="http://www.w3.org/1999/xlink" width="200" height="200"><defs><style type="text/css"></style></defs><path d="M758.8 669h-0.2c-17.6-0.1-31.9-14.4-31.8-32V419.7c0-113.1-95.8-205.1-213.6-205.1s-213.6 92-213.6 205.1v217.2c0.1 17.7-14.2 32.1-31.9 32.1h-0.1c-17.6 0-31.9-14.2-32-31.8V419.8c0-72.1 29-139.8 81.7-190.7 52.4-50.6 122-78.4 195.9-78.4s143.5 27.9 195.9 78.4c52.7 50.9 81.7 118.6 81.7 190.7v217.5c-0.1 17.5-14.4 31.7-32 31.7z" fill="" p-id="4735"></path><path d="M193.1 864.3c-9.1 0-29.5-1.9-45.7-16.9-8.6-8-18.9-22.6-18.9-46.3 0-32.1 31.6-76.4 93.8-152.1 8.2-10 15.4-18.7 19.7-24.4 10.7-14 30.8-16.7 44.9-6 14 10.7 16.7 30.8 6 44.9-5.1 6.6-12.5 15.7-21.2 26.2-15.9 19.3-35.6 43.3-52 66-19.9 27.6-25.4 40.2-26.8 44.6 0.8-0.1 0.6 0 1.8 0l381.3-0.5c17.7 0 32 14.3 32 32s-14.3 32-32 32l-380.6 0.5h-2.3z" fill="" p-id="4736"></path><path d="M832.5 864.3H830l-380.6-0.5c-17.7 0-32-14.4-32-32 0-17.7 14.3-32 32-32l381.3 0.5H832.5c-1.5-4.5-6.9-17-26.8-44.6-16.4-22.7-36.2-46.7-52-66-8.6-10.5-16.1-19.6-21.2-26.2-10.7-14-8-34.1 6-44.9s34.1-8 44.9 6c4.4 5.7 11.5 14.4 19.7 24.4 62.2 75.7 93.8 120 93.8 152.1 0 23.8-10.3 38.3-18.9 46.3-16 15-36.4 16.9-45.5 16.9zM593.1 197.3c-14.9 0-27-12.1-27-27 0-28.6-23.3-51.9-51.9-51.9-28.6 0-51.9 23.3-51.9 51.9 0 14.9-12.1 27-27 27s-27-12.1-27-27c0-58.4 47.5-105.9 105.9-105.9 58.4 0 105.9 47.5 105.9 105.9 0 14.9-12.1 27-27 27z" fill="" p-id="4737"></path><path d="M512.3 960.1c-73 0-132.4-59.4-132.4-132.4 0-14.6 11.9-26.5 26.5-26.5s26.5 11.9 26.5 26.5c0 43.8 35.6 79.4 79.4 79.4s79.4-35.6 79.4-79.4c0-14.6 11.9-26.5 26.5-26.5s26.5 11.9 26.5 26.5c-0.1 73-59.4 132.4-132.4 132.4z" fill="" p-id="4738"></path></svg>