<?xml version="1.0" standalone="no"?><!DOCTYPE svg PUBLIC "-//W3C//DTD SVG 1.1//EN" "http://www.w3.org/Graphics/SVG/1.1/DTD/svg11.dtd"><svg t="1589544903632" class="icon" viewBox="0 0 1024 1024" version="1.1" xmlns="http://www.w3.org/2000/svg" p-id="8394" xmlns:xlink="http://www.w3.org/1999/xlink" width="200" height="200"><defs><style type="text/css"></style></defs><path d="M1007.753139 477.491411L549.450934 16.630645a51.299144 51.299144 0 0 0-74.582048 0L16.630645 477.491411A57.247798 57.247798 0 0 0 6.076582 541.775251h133.17309v428.686864c0 32.109938 21.300019 53.537885 53.282029 53.537885h639.384346c31.98201 0 53.282029-21.427947 53.282029-53.537885V541.775251h133.17309c10.681991-26.800924 5.372978-48.228871-10.618027-64.28384z m-287.710163 337.538135L565.441939 932.915235V825.775501H299.095759c-31.98201 0-53.282029-21.427947-53.282029-53.601849 0-32.109938 21.300019-53.537885 53.282029-53.537885h266.410144V611.432069l154.537073 117.88569c31.98201 21.427947 31.98201 64.28384 0 85.711787z m5.309014-257.135361H458.941845v107.139733L304.404772 547.148229a55.968518 55.968518 0 0 1 0-85.711787L458.941845 343.486789v107.139734h266.410145c31.98201 0 53.282029 21.427947 53.282028 53.601849a53.537885 53.537885 0 0 1-53.282028 53.537884z" fill="#cdcdcd" p-id="8395"></path></svg>