<?xml version="1.0" standalone="no"?><!DOCTYPE svg PUBLIC "-//W3C//DTD SVG 1.1//EN" "http://www.w3.org/Graphics/SVG/1.1/DTD/svg11.dtd"><svg t="1589543322811" class="icon" viewBox="0 0 1024 1024" version="1.1" xmlns="http://www.w3.org/2000/svg" p-id="5424" xmlns:xlink="http://www.w3.org/1999/xlink" width="200" height="200"><defs><style type="text/css"></style></defs><path d="M974.912 742.4l-229.888-229.952a380.352 380.352 0 0 0 22.272-128.832A384 384 0 0 0 383.68 0c-52.672 0-103.872 10.624-152.256 31.552L208.64 41.472h0.064a19.456 19.456 0 0 0-5.952 31.68c0.128 0.128-0.128 0.128 0 0.256l214.784 214.784-129.216 129.216-210.496-210.56c-0.32 0.064-0.64 0.064-1.024-0.32a22.848 22.848 0 0 0-37.632 8.32c-0.128 0.256-0.256 0.128-0.384 0.128l-7.104 16.448A381.056 381.056 0 0 0 0 383.616a384.064 384.064 0 0 0 383.616 383.616 380.8 380.8 0 0 0 128.832-22.272l229.952 229.888c31.04 31.04 72.32 48.128 116.224 48.128 43.904 0 85.248-17.088 116.288-48.128 64-64.064 64-168.384 0-232.512z m-46.656 183.04c-47.616 50.368-99.264 50.368-156.8 8.96l-258.56-248.768-16.384 10.752c-53.312 18.88-58.752 18.88-108.224 18.88-189.376 0-340.992-187.008-332.032-341.12a483.2 483.2 0 0 1 17.28-98.048l200.576 195.84c7.808 6.208 26.048 3.712 33.92-2.176L465.28 311.68c8-8 15.168-26.88 8.32-35.52L280.96 75.968c22.08-5.12 52.032-18.112 107.328-18.112 164.992 0 327.552 151.296 327.552 316.352 0 41.088-1.088 73.728-17.472 111.36l-14.656 26.752 260.672 272.128c22.144 24.32 26.24 96.256-16.128 140.992z" p-id="5425" fill="#dbdbdb"></path></svg>