<?xml version="1.0" standalone="no"?><!DOCTYPE svg PUBLIC "-//W3C//DTD SVG 1.1//EN" "http://www.w3.org/Graphics/SVG/1.1/DTD/svg11.dtd"><svg t="1589542985335" class="icon" viewBox="0 0 1227 1024" version="1.1" xmlns="http://www.w3.org/2000/svg" p-id="4323" xmlns:xlink="http://www.w3.org/1999/xlink" width="239.6484375" height="200"><defs><style type="text/css"></style></defs><path d="M442.062352 23.291121L86.638281 163.311401c-18.249922 7.698575-33.217203 12.309905-51.037255 20.555587l-32.318385 11.880035-0.078158 536.868156 68.075726 32.318385c86.052095 45.01908 188.712791 89.60829 271.482246 133.806709 21.68888 11.606481 46.035135 21.962433 68.544675 33.490756 39.938802 20.594666 101.410166 47.832772 135.956057 66.629801 11.567402 6.330808 21.063615 10.8249 32.748254 16.68676 29.192059 14.537411 17.93729 12.817932 65.887299-18.132685l134.119342-89.686448a287.778214 287.778214 0 0 1 262.10327-496.265011c-0.156316-27.90245-0.273553-55.531347-0.273553-82.730375v-100.43319c0-8.519236 2.540139-27.316264-1.6804-32.396542L504.002665 1.016056c-11.137533 0.156316-50.333832 17.038471-61.940313 22.275065z m-47.129349 104.61465c9.808845-5.705543 53.147525-21.376247 67.606777-27.277186 38.453797-15.631625 29.348376-18.836108 69.287178-4.14238 46.973033 17.272945 91.718559 32.748254 138.496196 50.099357 22.978489 8.519236 47.168428 17.702815 70.02968 24.971521 22.392303 7.151468 46.26961 17.351104 68.466517 25.0106 15.00636 5.158436 132.321705 46.816717 137.284745 51.076334-20.00848 11.332928-42.596178 22.626777-64.285057 34.311417-45.527107 24.58073-34.076942 23.642833-66.512564 10.277793-23.955465-9.847924-47.832772-18.054527-71.202051-27.355343l-346.357729-134.705528c-2.540139-1.485004-1.719479-1.055135-2.813692-2.266585z m-251.082975 100.433189c5.549227-6.956073 101.644641-42.166308 112.782174-46.543163 14.068462-5.588306 22.978489-12.817932 37.672215-6.487124 67.880331 29.231139 156.628881 59.869123 227.205668 88.201443l225.994217 87.654337a27.51166 27.51166 0 0 1-0.976977 1.016056l-104.419254 56.508324c-19.500452 10.395031-15.631625 8.870947-37.007872 0.429869-52.444101-20.672824-101.68372-38.805509-153.307161-59.947281-25.557707-10.473189-52.209627-18.797029-77.376543-29.934562-31.810357-13.951225-221.812757-84.567091-230.566467-90.897899z m457.029633 702.876013c-7.659496 5.549227-16.530443-2.422902-24.854284-6.799756-8.480156-4.415934-16.569522-8.011208-24.815205-11.958193-17.272945-8.32384-34.350496-16.882155-50.880939-25.127837l-203.015728-99.964242c-33.607994-16.921234-67.137829-32.709175-100.394111-49.395934-33.686152-16.843076-67.137829-33.373519-101.840036-49.786725-18.601634-8.792789-10.942137-11.919114-11.64556-63.503477-1.016056-75.070879 1.055135-149.008464 0-225.486189l0.156316-148.930306c4.845804-0.42987 87.185388 31.380487 99.260818 36.578003 41.775518 18.054527 117.119949 46.425926 161.083895 62.91729 61.23689 22.978489 134.940002 54.984241 195.00452 76.282329 12.036351 4.259618 21.415326 8.636473 32.826412 12.93517 9.457133 3.556195 23.3302 7.307785 30.481669 13.091486 3.165404 33.607994 0.156316 476.061136-1.367767 479.148381z" p-id="4324" fill="#bfbfbf"></path><path d="M203.289282 680.210157c18.992424 11.567402 271.755799 129.976961 279.063583 130.797621v-47.051191c-6.174492-4.57225-26.222051-13.052407-33.842468-16.882155l-244.59585-114.14994-0.625265 47.285665zM364.099623 549.021745c7.112389 6.291729 25.714023 8.949105 38.297481 15.123597l0.703423 118.76127c5.900938 4.064222 30.481669 14.263858 39.15722 14.654648 0.82066-29.700087-1.289609-96.720679 0.508028-119.738246l36.968793 11.137533c-3.438957-11.840956-50.0212-104.028464-57.289906-114.892443-11.645561 15.944257-51.349888 62.48742-58.345039 74.953641zM205.673104 492.591579l37.437742 13.638593 0.273553 109.108742c10.785821 4.220539 28.684032 12.348984 39.313537 14.029383-0.039079-15.631625-2.618297-101.566483 1.367767-108.092686 5.041199-3.360799 29.192059 9.300817 38.063007 9.926082-5.471069-12.231746-55.804901-108.678872-59.517412-112.235067-3.868827 2.970009-54.59345 68.310201-56.938194 73.624953zM926.36917 511.31045c-3.243562 0.273553-9.457133 2.461981-13.130565 3.556195a185.625545 185.625545 0 0 0-34.897603 16.022415c-18.836108-12.622537-22.587698-35.210235-51.818836-35.210235a30.637985 30.637985 0 0 0-17.93729 7.542259l-25.40139 25.401391c-6.799757 6.956073-7.542259 14.967281-7.542259 23.760069 0 18.523475 26.730079 33.33444 35.210235 45.996057-5.471069 8.167524-18.718871 37.672216-19.57861 48.028167-23.486516 0-48.692512-5.119357-61.119654 10.316872-3.282641 4.064222-7.385943 10.316872-7.385942 17.11663v39.15722c0 6.721599 3.946985 12.583458 6.995152 16.491364 12.5053 16.100574 37.164188 10.903058 61.549523 10.903059 0.82066 10.395031 14.068462 39.743406 19.57861 47.950009-12.622537 18.914266-35.210235 22.587698-35.210235 51.896995 0 13.286881 12.192667 22.431382 20.321112 30.559826 14.029383 14.068462 16.725839 20.321112 36.460765 20.321113 18.523475 0 33.33444-26.769158 45.996056-35.210235 8.284761 5.510148 36.929714 18.679792 48.028168 19.57861 0 11.645561-1.719479 38.258402 0.976976 46.894874 3.595274 11.293849 15.123597 21.610721 26.417446 21.610722h39.157221c6.721599 0 12.583458-3.907906 16.491364-6.956073 16.100574-12.5053 10.903058-37.164188 10.903058-61.549523 10.395031-0.859739 38.688272-13.404118 47.95001-19.57861 18.914266 12.661616 22.587698 35.210235 51.896994 35.210235a30.40351 30.40351 0 0 0 17.859132-7.542259l25.479548-25.44047c6.799757-6.956073 7.542259-14.928202 7.542259-23.720991 0-18.562555-26.808237-33.33444-35.249314-46.035135 5.549227-8.245682 18.679792-36.929714 19.57861-47.950009 11.645561 0 38.258402 1.6804 46.894875-1.055135a31.575882 31.575882 0 0 0 14.224779-9.261738c3.282641-4.064222 7.346864-10.277793 7.346863-17.07755v-39.15722c0-11.215691-10.238714-22.822172-21.610721-26.417446-8.675552-2.735534-35.249314-1.016056-46.894875-1.016056-0.508028-6.291729-5.744622-19.344136-8.128445-25.166916a133.845788 133.845788 0 0 0-11.450165-22.822172c12.661616-18.836108 35.249314-22.587698 35.249314-51.857916a30.40351 30.40351 0 0 0-7.542259-17.89821l-25.479548-25.401391c-6.956073-6.838836-14.889123-7.542259-23.720991-7.542259-18.562555 0-33.33444 26.730079-46.035135 35.171156-8.089366-5.43199-37.633137-18.718871-47.95001-19.539531 0-23.486516 5.080278-48.692512-10.316872-61.119653-4.103302-3.282641-10.316872-7.385943-17.116629-7.385943h-39.157221c-11.176612 0-22.822172 10.238714-26.417446 21.571642-2.735534 8.597394-1.016056 35.171156-1.016055 46.855796z m46.933953 60.220835a121.848516 121.848516 0 1 1 0.078159 243.697032 121.848516 121.848516 0 0 1-0.078159-243.697032z" p-id="4325" fill="#bfbfbf"></path></svg>